HIERARCHY
ROOT Hips
{
  OFFSET 39.7595 98.8707 3.02326
  CHANNELS 6 Xposition Yposition Zposition Zrotation Xrotation Yrotation
  JOINT spine
  {
    OFFSET 0 8.30104 0.477351
    CHANNELS 3 Zrotation Xrotation Yrotation
    JOINT spine1
    {
      OFFSET 0 10.4565 0
      CHANNELS 3 Zrotation Xrotation Yrotation
      JOINT spine2
      {
        OFFSET 0 10.0192 0
        CHANNELS 3 Zrotation Xrotation Yrotation
        JOINT Neck
        {
          OFFSET 0 25.7235 1.22641
          CHANNELS 3 Zrotation Xrotation Yrotation
          JOINT Head
          {
            OFFSET 0 7.77175 0
            CHANNELS 3 Zrotation Xrotation Yrotation
            End Site
            {
              OFFSET 0 18.812 -6.20394
            }
          }
        }
        JOINT RightShoulder
        {
          OFFSET -4.2188 10.82 -0.587439
          CHANNELS 3 Zrotation Xrotation Yrotation
          JOINT RightArm
          {
            OFFSET 0 14.1914 0
            CHANNELS 3 Zrotation Xrotation Yrotation
            JOINT RightArmRoll
            {
              OFFSET 0 7.16409 0
              CHANNELS 3 Zrotation Xrotation Yrotation
              JOINT RightForeArm
              {
                OFFSET 0 20.8665 0
                CHANNELS 3 Zrotation Xrotation Yrotation
                JOINT RightForeArmRoll
                {
                  OFFSET 0 8.03921 0
                  CHANNELS 3 Zrotation Xrotation Yrotation
                  JOINT RightHand
                  {
                    OFFSET 0 16.133 0
                    CHANNELS 3 Zrotation Xrotation Yrotation
                    End Site
                    {
                      OFFSET 0 0 0
                    }
                  }
                }
              }
            }
          }
        }
        JOINT LeftShoulder
        {
          OFFSET 4.2188 10.82 -0.587439
          CHANNELS 3 Zrotation Xrotation Yrotation
          JOINT LeftArm
          {
            OFFSET 0 14.1914 0
            CHANNELS 3 Zrotation Xrotation Yrotation
            JOINT LeftArmRoll
            {
              OFFSET 0 7.16409 0
              CHANNELS 3 Zrotation Xrotation Yrotation
              JOINT LeftForeArm
              {
                OFFSET 0 20.8665 0
                CHANNELS 3 Zrotation Xrotation Yrotation
                JOINT LeftForeArmRoll
                {
                  OFFSET 0 8.03921 0
                  CHANNELS 3 Zrotation Xrotation Yrotation
                  JOINT LeftHand
                  {
                    OFFSET 0 16.133 0
                    CHANNELS 3 Zrotation Xrotation Yrotation
                    End Site
                    {
                      OFFSET 0 0 0
                    }
                  }
                }
              }
            }
          }
        }
      }
    }
  }
  JOINT RightUpLeg
  {
    OFFSET -7.35773 -1.34921 -1.13181
    CHANNELS 3 Zrotation Xrotation Yrotation
    JOINT RightUpLegRoll
    {
      OFFSET 0 18.9168 0
      CHANNELS 3 Zrotation Xrotation Yrotation
      JOINT RightLeg
      {
        OFFSET 0 -23.4256 0
        CHANNELS 3 Zrotation Xrotation Yrotation
        JOINT RightLegRoll
        {
          OFFSET 0 23.5023 0
          CHANNELS 3 Zrotation Xrotation Yrotation
          JOINT RightFoot
          {
            OFFSET 0 19.5617 0
            CHANNELS 3 Zrotation Xrotation Yrotation
            JOINT RightToeBase
            {
              OFFSET 0 16.3526 0
              CHANNELS 3 Zrotation Xrotation Yrotation
              End Site
              {
                OFFSET 0.00693125 7.91944 -0.912837
              }
            }
          }
        }
      }
    }
  }
  JOINT LeftUpLeg
  {
    OFFSET 7.35773 -1.34921 -1.13181
    CHANNELS 3 Zrotation Xrotation Yrotation
    JOINT LeftUpLegRoll
    {
      OFFSET 0 18.9169 0
      CHANNELS 3 Zrotation Xrotation Yrotation
      JOINT LeftLeg
      {
        OFFSET 0 23.4255 0
        CHANNELS 3 Zrotation Xrotation Yrotation
        JOINT LeftLegRoll
        {
          OFFSET 0 23.7195 0
          CHANNELS 3 Zrotation Xrotation Yrotation
          JOINT LeftFoot
          {
            OFFSET 0 19.3444 0
            CHANNELS 3 Zrotation Xrotation Yrotation
            JOINT LeftToeBase
            {
              OFFSET 0 16.3526 0
              CHANNELS 3 Zrotation Xrotation Yrotation
              End Site
              {
                OFFSET -0.0310629 7.91944 -0.912837
              }
            }
          }
        }
      }
    }
  }
}
MOTION
Frames: 12
Frame Time: 0.00208333
40.0137 98.8707 2.33945 1.2934 -2.12185 1.54974 0.0638892 -1.38982 0.0504756 0.123971 1.22326 0.0884475 0.122916 2.86832 0.0864314 -6.4491 21.8623 0.117565 4.98511 -10.8371 -1.09479 72.4143 -0.676114 -1.91279 98.1302 22.3464 27.0249 2.02943e-006 1.63351e-006 2.50698e-006 6.06646 0.0468791 -0.0107217 -5.85579e-006 3.6845e-006 -3.09242 8.02939 -4.95141 0.697663 -67.2609 1.43015 0.284954 -101.731 10.4022 -14.846 -6.75868e-015 1.59028e-015 1.59028e-015 -11.5771 4.65961 0.947339 4.00639e-006 -3.76634e-007 3.00475 -8.02888 -4.95147 -0.697687 174.774 0.653794 1.72899 -180 7.01551e-015 178.94 175.849 5.52537 179.762 -1.494e-006 -2.10155e-006 0.0616801 -18.4761 67.7827 19.3577 8.13649 25.2327 -3.48773 -176.55 0.425886 1.5326 4.54188e-006 -4.6773e-006 -1.11718 -3.44188 -8.27733 0.410448 -4.00023e-006 -5.89837e-006 -0.0981923 18.2106 67.266 -18.9524 -8.13649 25.2327 3.48774 
40.0144 98.9079 2.33859 1.29589 -2.11702 1.55384 0.0638867 -1.39244 0.0504785 0.124387 1.21811 0.0886598 0.123329 2.86317 0.0866296 -6.4571 21.8745 0.114642 4.98815 -10.8604 -1.09942 72.4056 -0.675193 -1.91149 98.1284 22.3332 27.0825 2.02943e-006 1.63351e-006 2.50698e-006 6.01749 0.0464618 -0.00715285 -5.85579e-006 3.6845e-006 -3.09258 8.02939 -4.95141 0.697663 -67.2657 1.4176 0.292054 -101.717 10.4014 -14.8725 -7.95139e-016 6.36111e-015 1.59028e-015 -11.5582 4.66566 0.947907 4.00639e-006 -3.76634e-007 3.00475 -8.02888 -4.95147 -0.697687 174.77 0.652391 1.73162 -180 7.01551e-015 178.94 175.846 5.51391 179.762 -1.494e-006 -2.10155e-006 0.0616801 -18.4741 67.7803 19.3556 8.13649 25.2327 -3.48773 -176.553 0.429764 1.53589 4.54188e-006 -4.6773e-006 -1.11718 -3.4408 -8.27508 0.410582 -4.00023e-006 -5.89837e-006 -0.0981768 18.2112 67.2667 -18.9528 -8.13649 25.2327 3.48774 
40.0153 98.899 2.33104 1.2984 -2.11212 1.55791 0.0638864 -1.3951 0.0504814 0.124859 1.21294 0.0888694 0.1238 2.858 0.0868236 -6.46474 21.8873 0.111634 4.9907 -10.8846 -1.10411 72.3971 -0.674124 -1.91015 98.1266 22.3195 27.1374 2.02943e-006 1.63351e-006 2.50698e-006 5.97142 0.0460601 -0.00399185 -5.85579e-006 3.6845e-006 -3.09271 8.02939 -4.95141 0.697663 -67.27 1.40466 0.299295 -101.704 10.4009 -14.8972 -1.19271e-015 4.77083e-015 -1.59028e-015 -11.5404 4.67148 0.948392 4.00639e-006 -3.76634e-007 3.00475 -8.02888 -4.95147 -0.697687 174.767 0.650988 1.73414 -180 7.01551e-015 178.94 175.843 5.50207 179.762 -1.494e-006 -2.10155e-006 0.0616801 -18.4721 67.7778 19.3534 8.13649 25.2327 -3.48773 -176.556 0.433641 1.53922 4.54188e-006 -4.6773e-006 -1.11718 -3.43969 -8.27271 0.410722 -4.00023e-006 -5.89837e-006 -0.0981639 18.2118 67.2675 -18.9531 -8.13649 25.2327 3.48774 
40.0153 98.8724 2.33236 1.30091 -2.10717 1.56195 0.0638875 -1.39777 0.0504845 0.125372 1.20776 0.0890769 0.12431 2.85282 0.0870146 -6.47214 21.9005 0.108565 4.9929 -10.9096 -1.10884 72.389 -0.672949 -1.90879 98.1247 22.3054 27.1903 2.02943e-006 1.63351e-006 2.50698e-006 5.92739 0.0456691 -0.00111635 -5.85579e-006 3.6845e-006 -3.09282 8.02939 -4.95141 0.697663 -67.2739 1.39145 0.306634 -101.691 10.4006 -14.9209 -2.78299e-015 3.18055e-015 1.59028e-015 -11.5234 4.67714 0.948818 4.00639e-006 -3.76634e-007 3.00475 -8.02888 -4.95147 -0.697687 174.764 0.649584 1.73659 -180 7.01551e-015 178.94 175.84 5.49 179.762 -1.494e-006 -2.10155e-006 0.0616801 -18.4701 67.7754 19.3512 8.13649 25.2327 -3.48773 -176.558 0.437517 1.54257 4.54188e-006 -4.6773e-006 -1.11718 -3.43855 -8.27025 0.410867 -4.00023e-006 -5.89837e-006 -0.0981529 18.2123 67.2681 -18.9534 -8.13649 25.2327 3.48774 
40.0177 98.8853 2.33835 1.30343 -2.10218 1.56598 0.0638895 -1.40047 0.0504875 0.125907 1.20256 0.0892834 0.124843 2.84762 0.0872039 -6.47939 21.914 0.105461 4.99491 -10.9349 -1.11359 72.3809 -0.671715 -1.90741 98.1229 22.2912 27.2421 2.02943e-006 1.63351e-006 2.50698e-006 5.88451 0.0452844 0.001596 -5.85579e-006 3.6845e-006 -3.09292 8.02939 -4.95141 0.697663 -67.2777 1.37808 0.31403 -101.679 10.4005 -14.9438 7.15625e-015 7.95139e-015 -1.59028e-015 -11.5068 4.68271 0.94921 4.00639e-006 -3.76634e-007 3.00475 -8.02888 -4.95147 -0.697687 174.76 0.64818 1.739 -180 7.01551e-015 178.94 175.838 5.47778 179.761 -1.494e-006 -2.10155e-006 0.0616801 -18.468 67.7729 19.349 8.13649 25.2327 -3.48773 -176.561 0.441394 1.54594 4.54188e-006 -4.6773e-006 -1.11718 -3.4374 -8.26775 0.411015 -4.00023e-006 -5.89837e-006 -0.0981429 18.2128 67.2688 -18.9536 -8.13649 25.2327 3.48774 
40.0204 98.868 2.33672 1.30596 -2.09719 1.57 0.0638916 -1.40316 0.0504906 0.126449 1.19736 0.0894895 0.125381 2.84243 0.0873928 -6.4866 21.9276 0.102349 4.99686 -10.9603 -1.11834 72.3729 -0.670466 -1.90604 98.121 22.2769 27.2937 2.02943e-006 1.63351e-006 2.50698e-006 5.84193 0.0449012 0.00426758 -5.85579e-006 3.6845e-006 -3.09301 8.02939 -4.95141 0.697663 -67.2814 1.36467 0.32144 -101.666 10.4004 -14.9666 5.56597e-015 3.18055e-015 1.59028e-015 -11.4904 4.68826 0.949595 4.00639e-006 -3.76634e-007 3.00475 -8.02888 -4.95147 -0.697687 174.757 0.646776 1.7414 -180 7.01551e-015 178.94 175.835 5.46553 179.761 -1.494e-006 -2.10155e-006 0.0616801 -18.466 67.7704 19.3468 8.13649 25.2327 -3.48773 -176.563 0.44527 1.54932 4.54188e-006 -4.6773e-006 -1.11718 -3.43624 -8.26524 0.411163 -4.00023e-006 -5.89837e-006 -0.0981331 18.2133 67.2694 -18.9538 -8.13649 25.2327 3.48774 
40.0245 98.871 2.33464 1.30847 -2.09222 1.57404 0.0638934 -1.40585 0.0504936 0.126979 1.19217 0.0896963 0.125909 2.83724 0.0875826 -6.49389 21.941 0.0992525 4.99891 -10.9856 -1.12309 72.3648 -0.669247 -1.90467 98.1192 22.2626 27.3457 2.02943e-006 1.63351e-006 2.50698e-006 5.79876 0.044515 0.00702072 -5.85579e-006 3.6845e-006 -3.09312 8.02939 -4.95141 0.697663 -67.2851 1.35134 0.328822 -101.653 10.4002 -14.9897 -2.78299e-015 3.18055e-015 -0 -11.4737 4.69385 0.949996 4.00639e-006 -3.76634e-007 3.00475 -8.02888 -4.95147 -0.697687 174.754 0.645373 1.74382 -180 7.01551e-015 178.94 175.832 5.45334 179.761 -1.494e-006 -2.10155e-006 0.0616801 -18.4639 67.7679 19.3446 8.13649 25.2327 -3.48773 -176.566 0.449146 1.55269 4.54188e-006 -4.6773e-006 -1.11718 -3.43509 -8.26276 0.41131 -4.00023e-006 -5.89837e-006 -0.0981229 18.2138 67.2701 -18.9541 -8.13649 25.2327 3.48774 
40.0251 98.8749 2.33562 1.31099 -2.08728 1.57809 0.0638941 -1.40852 0.0504966 0.12748 1.18699 0.0899044 0.126407 2.83206 0.0877744 -6.50135 21.9541 0.0961984 5.00119 -11.0103 -1.12781 72.3566 -0.668103 -1.90331 98.1175 22.2486 27.3992 2.02943e-006 1.63351e-006 2.50698e-006 5.75415 0.0441209 0.00997779 -5.85579e-006 3.6845e-006 -3.09323 8.02939 -4.95141 0.697663 -67.2892 1.3382 0.336133 -101.64 10.3998 -15.0136 9.54166e-015 6.36111e-015 -0 -11.4564 4.69955 0.950439 4.00639e-006 -3.76634e-007 3.00475 -8.02888 -4.95147 -0.697687 174.751 0.643969 1.74629 -180 7.01551e-015 178.94 175.83 5.44131 179.761 -1.494e-006 -2.10155e-006 0.0616801 -18.4619 67.7655 19.3424 8.13649 25.2327 -3.48773 -176.569 0.453023 1.55604 4.54188e-006 -4.6773e-006 -1.11718 -3.43396 -8.26033 0.411454 -4.00023e-006 -5.89837e-006 -0.0981113 18.2144 67.2708 -18.9544 -8.13649 25.2327 3.48774 
40.0272 98.8719 2.33595 1.31348 -2.0824 1.58216 0.0638931 -1.41116 0.0504996 0.127936 1.18183 0.0901148 0.126861 2.8269 0.0879697 -6.50909 21.9667 0.093212 5.00386 -11.0343 -1.13249 72.3481 -0.667078 -1.90198 98.1158 22.2349 27.4548 2.02943e-006 1.63351e-006 2.50698e-006 5.70721 0.0437145 0.0132611 -5.85579e-006 3.6845e-006 -3.09337 8.02939 -4.95141 0.697663 -67.2936 1.32538 0.343331 -101.627 10.3992 -15.0389 7.95139e-016 6.36111e-015 -3.18055e-015 -11.4383 4.70544 0.950949 4.00639e-006 -3.76634e-007 3.00475 -8.02888 -4.95147 -0.697687 174.747 0.642566 1.74885 -180 7.01551e-015 178.94 175.827 5.42961 179.761 -1.494e-006 -2.10155e-006 0.0616801 -18.4599 67.7631 19.3403 8.13649 25.2327 -3.48773 -176.571 0.4569 1.55935 4.54188e-006 -4.6773e-006 -1.11718 -3.43285 -8.25799 0.411592 -4.00023e-006 -5.89837e-006 -0.0980976 18.215 67.2715 -18.9547 -8.13649 25.2327 3.48774 
40.028 98.8697 2.33551 1.31597 -2.0776 1.58628 0.0638897 -1.41377 0.0505024 0.128329 1.17669 0.0903282 0.127251 2.82176 0.0881696 -6.51722 21.9786 0.090319 5.00706 -11.0572 -1.13711 72.3391 -0.666217 -1.90069 98.1141 22.2217 27.5134 2.02943e-006 1.63351e-006 2.50698e-006 5.65708 0.043291 0.0169931 -5.85579e-006 3.6845e-006 -3.09354 8.02939 -4.95141 0.697663 -67.2985 1.31299 0.350374 -101.612 10.3983 -15.066 3.57812e-015 6.36111e-015 -0 -11.419 4.71158 0.95155 4.00639e-006 -3.76634e-007 3.00475 -8.02888 -4.95147 -0.697687 174.744 0.641163 1.75152 -180 7.01551e-015 178.94 175.824 5.41827 179.761 -1.494e-006 -2.10155e-006 0.0616801 -18.4579 67.7607 19.3382 8.13649 25.2327 -3.48773 -176.574 0.460777 1.56262 4.54188e-006 -4.6773e-006 -1.11718 -3.43179 -8.25578 0.411723 -4.00023e-006 -5.89837e-006 -0.0980811 18.2156 67.2724 -18.9552 -8.13649 25.2327 3.48774 
40.0273 98.8702 2.34439 1.31843 -2.07291 1.59044 0.0638834 -1.41633 0.0505051 0.128643 1.17158 0.0905456 0.127563 2.81665 0.0883754 -6.52584 21.9896 0.087545 5.01093 -11.0787 -1.14167 72.3298 -0.665566 -1.89944 98.1125 22.2091 27.5759 2.02943e-006 1.63351e-006 2.50698e-006 5.6029 0.0428458 0.0212961 -5.85579e-006 3.6845e-006 -3.09376 8.02939 -4.95141 0.697663 -67.3042 1.30115 0.35722 -101.597 10.3968 -15.0955 -2.78299e-015 3.18055e-015 -0 -11.3981 4.71804 0.952269 4.00639e-006 -3.76634e-007 3.00475 -8.02888 -4.95147 -0.697687 174.741 0.63976 1.75433 -180 7.01551e-015 178.94 175.821 5.40744 179.761 -1.494e-006 -2.10155e-006 0.0616801 -18.456 67.7584 19.3361 8.13649 25.2327 -3.48773 -176.577 0.464656 1.56584 4.54188e-006 -4.6773e-006 -1.11718 -3.43078 -8.25373 0.411846 -4.00023e-006 -5.89837e-006 -0.0980608 18.2163 67.2733 -18.9557 -8.13649 25.2327 3.48774 
40.0268 98.8798 2.34251 1.32087 -2.06834 1.59465 0.0638735 -1.41883 0.0505076 0.128859 1.16652 0.0907677 0.127777 2.81158 0.0885885 -6.53506 21.9996 0.0849158 5.01563 -11.0985 -1.14614 72.3198 -0.665169 -1.89825 98.111 22.1972 27.643 2.02943e-006 1.63351e-006 2.50698e-006 5.54378 0.0423743 0.0262924 -5.85579e-006 3.6845e-006 -3.09403 8.02939 -4.95141 0.697663 -67.3106 1.28998 0.363826 -101.58 10.3949 -15.1278 -9.54166e-015 0 3.18055e-015 -11.3753 4.72489 0.95313 4.00639e-006 -3.76634e-007 3.00475 -8.02888 -4.95147 -0.697687 174.737 0.638358 1.75733 -180 7.01551e-015 178.94 175.818 5.39722 179.761 -1.494e-006 -2.10155e-006 0.0616801 -18.4542 67.7561 19.3341 8.13649 25.2327 -3.48773 -176.579 0.468535 1.56898 4.54188e-006 -4.6773e-006 -1.11718 -3.42983 -8.25188 0.411957 -4.00023e-006 -5.89837e-006 -0.0980362 18.2172 67.2743 -18.9563 -8.13649 25.2327 3.48774 
